<svg xmlns="http://www.w3.org/2000/svg" viewBox="0 0 1920 1036" preserveAspectRatio="xMidYMid" width="1920" height="1036" xmlns:xlink="http://www.w3.org/1999/xlink" style="shape-rendering:auto;display:block;background-position-x:0%;background-position-y:0%;background-size:auto;background-origin:padding-box;background-clip:border-box;background:scroll rgb(255, 255, 255) none  repeat;width:1920px;height:1036px;;animation:none"><g><defs><linearGradient gradientUnits="userSpaceOnUse" y2="0" y1="0" x2="1920" x1="935" id="ldbk-photon-3ecs4k2ryxl-lg"><stop offset="0" stop-color="#1d3f72"></stop>

    
<stop offset="1" stop-color="#34ffef"></stop></linearGradient>

  
<mask id="ldbk-photon-3ecs4k2ryxl-mask"><g><path fill="#fff" d="M2220 -0.5 L952.3063128557864 -0.5 A15 15 0 0 1 952.3063128557864 30.5 L2220 30.5" transform="matrix(1,0,0,1,36.30109786987305,0)" style="fill:rgb(255, 255, 255);transform:matrix(1, 0, 0, 1, 36.3011, 0);;animation:none"></path>
<path fill="#000" d="M1962.979435948442 -0.5 L1975.958871896884 -0.5 A15 15 0 0 1 1975.958871896884 30.5 L1962.979435948442 30.5 A15 15 0 0 1 1962.979435948442 -0.5" transform="matrix(1,0,0,1,0,0)" opacity="1" style="fill:rgb(0, 0, 0);transform:matrix(1, 0, 0, 1, 0, 0);;animation:none"></path>
<path fill="#fff" d="M2220 29.5 L900.3818761204632 29.5 A15 15 0 0 0 900.3818761204632 60.5 L2220 60.5" transform="matrix(1,0,0,1,-26.2277774810791,0)" style="fill:rgb(255, 255, 255);transform:matrix(1, 0, 0, 1, -26.2278, 0);;animation:none"></path>
<path fill="#fff" d="M1020.1295622363975 29.5 L1045.8068419433905 29.5 A15 15 0 0 1 1045.8068419433905 60.5 L1020.1295622363975 60.5 A15 15 0 0 1 1020.1295622363975 29.5" transform="matrix(1,0,0,1,0,0)" opacity="1" style="fill:rgb(255, 255, 255);transform:matrix(1, 0, 0, 1, 0, 0);;animation:none"></path>
<path fill="#fff" d="M2220 59.5 L916.5589996737666 59.5 A15 15 0 0 1 916.5589996737666 90.5 L2220 90.5" transform="matrix(1,0,0,1,0.029330993071198463,0)" style="fill:rgb(255, 255, 255);transform:matrix(1, 0, 0, 1, 0.029331, 0);;animation:none"></path>
<path fill="#000" d="M1961.8586398295422 59.5 L1973.7172796590844 59.5 A15 15 0 0 1 1973.7172796590844 90.5 L1961.8586398295422 90.5 A15 15 0 0 1 1961.8586398295422 59.5" transform="matrix(1,0,0,1,-683.3947143554688,0)" opacity="0.938776" style="fill:rgb(0, 0, 0);transform:matrix(1, 0, 0, 1, -683.395, 0);opacity:0.938776;;animation:none"></path>
<path fill="#fff" d="M2220 89.5 L889.4864577833525 89.5 A15 15 0 0 0 889.4864577833525 120.5 L2220 120.5" transform="matrix(1,0,0,1,-0.04916786402463913,0)" style="fill:rgb(255, 255, 255);transform:matrix(1, 0, 0, 1, -0.0491679, 0);;animation:none"></path>
<path fill="#fff" d="M1008.3686615289338 89.5 L1031.2103021810192 89.5 A15 15 0 0 1 1031.2103021810192 120.5 L1008.3686615289338 120.5 A15 15 0 0 1 1008.3686615289338 89.5" transform="matrix(1,0,0,1,0,0)" opacity="0.326531" style="fill:rgb(255, 255, 255);transform:matrix(1, 0, 0, 1, 0, 0);opacity:0.326531;;animation:none"></path>
<path fill="#fff" d="M2220 119.5 L933.3703071809256 119.5 A15 15 0 0 1 933.3703071809256 150.5 L2220 150.5" transform="matrix(1,0,0,1,12.85092544555664,0)" style="fill:rgb(255, 255, 255);transform:matrix(1, 0, 0, 1, 12.8509, 0);;animation:none"></path>
<path fill="#000" d="M1979.2153677213253 119.5 L2008.4307354426505 119.5 A15 15 0 0 1 2008.4307354426505 150.5 L1979.2153677213253 150.5 A15 15 0 0 1 1979.2153677213253 119.5" transform="matrix(1,0,0,1,-767.4093627929688,0)" opacity="0.938776" style="fill:rgb(0, 0, 0);transform:matrix(1, 0, 0, 1, -767.409, 0);opacity:0.938776;;animation:none"></path>
<path fill="#fff" d="M2220 149.5 L883.9426969501633 149.5 A15 15 0 0 0 883.9426969501633 180.5 L2220 180.5" transform="matrix(1,0,0,1,-1.2545127868652344,0)" style="fill:rgb(255, 255, 255);transform:matrix(1, 0, 0, 1, -1.25451, 0);;animation:none"></path>
<path fill="#fff" d="M996.04667422208 149.5 L1035.7087399046738 149.5 A15 15 0 0 1 1035.7087399046738 180.5 L996.04667422208 180.5 A15 15 0 0 1 996.04667422208 149.5" transform="matrix(1,0,0,1,0,0)" opacity="0.816327" style="fill:rgb(255, 255, 255);transform:matrix(1, 0, 0, 1, 0, 0);opacity:0.816327;;animation:none"></path>
<path fill="#fff" d="M2220 179.5 L928.1020702573823 179.5 A15 15 0 0 1 928.1020702573823 210.5 L2220 210.5" transform="matrix(1,0,0,1,0.40918827056884766,0)" style="fill:rgb(255, 255, 255);transform:matrix(1, 0, 0, 1, 0.409188, 0);;animation:none"></path>
<path fill="#000" d="M1963.2429537335713 179.5 L1976.4859074671426 179.5 A15 15 0 0 1 1976.4859074671426 210.5 L1963.2429537335713 210.5 A15 15 0 0 1 1963.2429537335713 179.5" transform="matrix(1,0,0,1,-888.8294677734375,0)" opacity="0.653061" style="fill:rgb(0, 0, 0);transform:matrix(1, 0, 0, 1, -888.829, 0);opacity:0.653061;;animation:none"></path>
<path fill="#fff" d="M2220 209.5 L896.6801813155754 209.5 A15 15 0 0 0 896.6801813155754 240.5 L2220 240.5" transform="matrix(1,0,0,1,-3.2106897830963135,0)" style="fill:rgb(255, 255, 255);transform:matrix(1, 0, 0, 1, -3.21069, 0);;animation:none"></path>
<path fill="#fff" d="M970.9264822580002 209.5 L1006.6789772152912 209.5 A15 15 0 0 1 1006.6789772152912 240.5 L970.9264822580002 240.5 A15 15 0 0 1 970.9264822580002 209.5" transform="matrix(1,0,0,1,0,0)" opacity="1" style="fill:rgb(255, 255, 255);transform:matrix(1, 0, 0, 1, 0, 0);;animation:none"></path>
<path fill="#fff" d="M2220 239.5 L927.7954407836584 239.5 A15 15 0 0 1 927.7954407836584 270.5 L2220 270.5" transform="matrix(1,0,0,1,37.04640197753906,0)" style="fill:rgb(255, 255, 255);transform:matrix(1, 0, 0, 1, 37.0464, 0);;animation:none"></path>
<path fill="#000" d="M1973.3350099140002 239.5 L1996.6700198280005 239.5 A15 15 0 0 1 1996.6700198280005 270.5 L1973.3350099140002 270.5 A15 15 0 0 1 1973.3350099140002 239.5" transform="matrix(1,0,0,1,-92.7564468383789,0)" opacity="1" style="fill:rgb(0, 0, 0);transform:matrix(1, 0, 0, 1, -92.7564, 0);;animation:none"></path>
<path fill="#fff" d="M2220 269.5 L878.25279036184 269.5 A15 15 0 0 0 878.25279036184 300.5 L2220 300.5" transform="matrix(1,0,0,1,-15.48172664642334,0)" style="fill:rgb(255, 255, 255);transform:matrix(1, 0, 0, 1, -15.4817, 0);;animation:none"></path>
<path fill="#fff" d="M964.4648908269326 269.5 L996.1650378604422 269.5 A15 15 0 0 1 996.1650378604422 300.5 L964.4648908269326 300.5 A15 15 0 0 1 964.4648908269326 269.5" transform="matrix(1,0,0,1,0,0)" opacity="0.979592" style="fill:rgb(255, 255, 255);transform:matrix(1, 0, 0, 1, 0, 0);opacity:0.979592;;animation:none"></path>
<path fill="#fff" d="M2220 299.5 L919.7365299040578 299.5 A15 15 0 0 1 919.7365299040578 330.5 L2220 330.5" transform="matrix(1,0,0,1,1.42300283908844,0)" style="fill:rgb(255, 255, 255);transform:matrix(1, 0, 0, 1, 1.423, 0);;animation:none"></path>
<path fill="#000" d="M1969.193552763504 299.5 L1988.3871055270079 299.5 A15 15 0 0 1 1988.3871055270079 330.5 L1969.193552763504 330.5 A15 15 0 0 1 1969.193552763504 299.5" transform="matrix(1,0,0,1,-1343.43115234375,0)" opacity="0.612245" style="fill:rgb(0, 0, 0);transform:matrix(1, 0, 0, 1, -1343.43, 0);opacity:0.612245;;animation:none"></path>
<path fill="#fff" d="M2220 329.5 L863.5298579992252 329.5 A15 15 0 0 0 863.5298579992252 360.5 L2220 360.5" transform="matrix(1,0,0,1,-28.1750431060791,0)" style="fill:rgb(255, 255, 255);transform:matrix(1, 0, 0, 1, -28.175, 0);;animation:none"></path>
<path fill="#fff" d="M1007.2077877430493 329.5 L1026.360172533629 329.5 A15 15 0 0 1 1026.360172533629 360.5 L1007.2077877430493 360.5 A15 15 0 0 1 1007.2077877430493 329.5" transform="matrix(1,0,0,1,0,0)" opacity="0.0816327" style="fill:rgb(255, 255, 255);transform:matrix(1, 0, 0, 1, 0, 0);opacity:0.0816327;;animation:none"></path>
<path fill="#fff" d="M2220 359.5 L916.1992582626596 359.5 A15 15 0 0 1 916.1992582626596 390.5 L2220 390.5" transform="matrix(1,0,0,1,43.22267532348633,0)" style="fill:rgb(255, 255, 255);transform:matrix(1, 0, 0, 1, 43.2227, 0);;animation:none"></path>
<path fill="#000" d="M1988.517339039537 359.5 L2027.0346780790742 359.5 A15 15 0 0 1 2027.0346780790742 390.5 L1988.517339039537 390.5 A15 15 0 0 1 1988.517339039537 359.5" transform="matrix(1,0,0,1,-193.02171325683594,0)" opacity="1" style="fill:rgb(0, 0, 0);transform:matrix(1, 0, 0, 1, -193.022, 0);;animation:none"></path>
<path fill="#fff" d="M2220 389.5 L883.2087524600652 389.5 A15 15 0 0 0 883.2087524600652 420.5 L2220 420.5" transform="matrix(1,0,0,1,-5.868885040283203,0)" style="fill:rgb(255, 255, 255);transform:matrix(1, 0, 0, 1, -5.86889, 0);;animation:none"></path>
<path fill="#fff" d="M1003.7162348829904 389.5 L1024.01702716726 389.5 A15 15 0 0 1 1024.01702716726 420.5 L1003.7162348829904 420.5 A15 15 0 0 1 1003.7162348829904 389.5" transform="matrix(1,0,0,1,0,0)" opacity="0.938775" style="fill:rgb(255, 255, 255);transform:matrix(1, 0, 0, 1, 0, 0);opacity:0.938775;;animation:none"></path>
<path fill="#fff" d="M2220 419.5 L937.1046764985895 419.5 A15 15 0 0 1 937.1046764985895 450.5 L2220 450.5" transform="matrix(1,0,0,1,2.9686965942382812,0)" style="fill:rgb(255, 255, 255);transform:matrix(1, 0, 0, 1, 2.9687, 0);;animation:none"></path>
<path fill="#000" d="M1979.7865979761627 419.5 L2009.5731959523255 419.5 A15 15 0 0 1 2009.5731959523255 450.5 L1979.7865979761627 450.5 A15 15 0 0 1 1979.7865979761627 419.5" transform="matrix(1,0,0,1,-1133.4736328125,0)" opacity="0.571428" style="fill:rgb(0, 0, 0);transform:matrix(1, 0, 0, 1, -1133.47, 0);opacity:0.571428;;animation:none"></path>
<path fill="#fff" d="M2220 449.5 L931.1282275720479 449.5 A15 15 0 0 0 931.1282275720479 480.5 L2220 480.5" transform="matrix(1,0,0,1,-1.3853939771652222,0)" style="fill:rgb(255, 255, 255);transform:matrix(1, 0, 0, 1, -1.38539, 0);;animation:none"></path>
<path fill="#fff" d="M988.2842525189886 449.5 L1011.4720262255405 449.5 A15 15 0 0 1 1011.4720262255405 480.5 L988.2842525189886 480.5 A15 15 0 0 1 988.2842525189886 449.5" transform="matrix(1,0,0,1,0,0)" opacity="1" style="fill:rgb(255, 255, 255);transform:matrix(1, 0, 0, 1, 0, 0);;animation:none"></path>
<path fill="#fff" d="M2220 479.5 L944.9456085365287 479.5 A15 15 0 0 1 944.9456085365287 510.5 L2220 510.5" transform="matrix(1,0,0,1,3.6016311645507812,0)" style="fill:rgb(255, 255, 255);transform:matrix(1, 0, 0, 1, 3.60163, 0);;animation:none"></path>
<path fill="#000" d="M1977.724026735601 479.5 L2005.448053471202 479.5 A15 15 0 0 1 2005.448053471202 510.5 L1977.724026735601 510.5 A15 15 0 0 1 1977.724026735601 479.5" transform="matrix(1,0,0,1,-1252.7349853515625,0)" opacity="0.367347" style="fill:rgb(0, 0, 0);transform:matrix(1, 0, 0, 1, -1252.73, 0);opacity:0.367347;;animation:none"></path>
<path fill="#fff" d="M2220 509.5 L897.5496276007967 509.5 A15 15 0 0 0 897.5496276007967 540.5 L2220 540.5" transform="matrix(1,0,0,1,-0.4985237121582031,0)" style="fill:rgb(255, 255, 255);transform:matrix(1, 0, 0, 1, -0.498524, 0);;animation:none"></path>
<path fill="#fff" d="M1016.2525223154742 509.5 L1029.4902827659648 509.5 A15 15 0 0 1 1029.4902827659648 540.5 L1016.2525223154742 540.5 A15 15 0 0 1 1016.2525223154742 509.5" transform="matrix(1,0,0,1,0,0)" opacity="0.77551" style="fill:rgb(255, 255, 255);transform:matrix(1, 0, 0, 1, 0, 0);opacity:0.77551;;animation:none"></path>
<path fill="#fff" d="M2220 539.5 L965.4980068825187 539.5 A15 15 0 0 1 965.4980068825187 570.5 L2220 570.5" transform="matrix(1,0,0,1,45.81608581542969,0)" style="fill:rgb(255, 255, 255);transform:matrix(1, 0, 0, 1, 45.8161, 0);;animation:none"></path>
<path fill="#000" d="M1989.7374932057257 539.5 L2029.4749864114515 539.5 A15 15 0 0 1 2029.4749864114515 570.5 L1989.7374932057257 570.5 A15 15 0 0 1 1989.7374932057257 539.5" transform="matrix(1,0,0,1,-193.9217987060547,0)" opacity="1" style="fill:rgb(0, 0, 0);transform:matrix(1, 0, 0, 1, -193.922, 0);;animation:none"></path>
<path fill="#fff" d="M2220 569.5 L942.3345291569002 569.5 A15 15 0 0 0 942.3345291569002 600.5 L2220 600.5" transform="matrix(1,0,0,1,-31.656503677368164,0)" style="fill:rgb(255, 255, 255);transform:matrix(1, 0, 0, 1, -31.6565, 0);;animation:none"></path>
<path fill="#fff" d="M1007.5137455178973 569.5 L1043.4609949114054 569.5 A15 15 0 0 1 1043.4609949114054 600.5 L1007.5137455178973 600.5 A15 15 0 0 1 1007.5137455178973 569.5" transform="matrix(1,0,0,1,0,0)" opacity="1" style="fill:rgb(255, 255, 255);transform:matrix(1, 0, 0, 1, 0, 0);;animation:none"></path>
<path fill="#fff" d="M2220 599.5 L959.7792910389614 599.5 A15 15 0 0 1 959.7792910389614 630.5 L2220 630.5" transform="matrix(1,0,0,1,9.921486854553223,0)" style="fill:rgb(255, 255, 255);transform:matrix(1, 0, 0, 1, 9.92149, 0);;animation:none"></path>
<path fill="#000" d="M1962.0129387497607 599.5 L1974.0258774995214 599.5 A15 15 0 0 1 1974.0258774995214 630.5 L1962.0129387497607 630.5 A15 15 0 0 1 1962.0129387497607 599.5" transform="matrix(1,0,0,1,-1686.4276123046875,0)" opacity="0.408163" style="fill:rgb(0, 0, 0);transform:matrix(1, 0, 0, 1, -1686.43, 0);opacity:0.408163;;animation:none"></path>
<path fill="#fff" d="M2220 629.5 L926.2036336163286 629.5 A15 15 0 0 0 926.2036336163286 660.5 L2220 660.5" transform="matrix(1,0,0,1,-25.54330825805664,0)" style="fill:rgb(255, 255, 255);transform:matrix(1, 0, 0, 1, -25.5433, 0);;animation:none"></path>
<path fill="#fff" d="M1051.8056041191337 629.5 L1081.7514073637285 629.5 A15 15 0 0 1 1081.7514073637285 660.5 L1051.8056041191337 660.5 A15 15 0 0 1 1051.8056041191337 629.5" transform="matrix(1,0,0,1,0,0)" opacity="0.571429" style="fill:rgb(255, 255, 255);transform:matrix(1, 0, 0, 1, 0, 0);opacity:0.571429;;animation:none"></path>
<path fill="#fff" d="M2220 659.5 L975.8369515789892 659.5 A15 15 0 0 1 975.8369515789892 690.5 L2220 690.5" transform="matrix(1,0,0,1,29.932029724121094,0)" style="fill:rgb(255, 255, 255);transform:matrix(1, 0, 0, 1, 29.932, 0);;animation:none"></path>
<path fill="#000" d="M1964.1330296358851 659.5 L1978.2660592717702 659.5 A15 15 0 0 1 1978.2660592717702 690.5 L1964.1330296358851 690.5 A15 15 0 0 1 1964.1330296358851 659.5" transform="matrix(1,0,0,1,-1164.901611328125,0)" opacity="0.326531" style="fill:rgb(0, 0, 0);transform:matrix(1, 0, 0, 1, -1164.9, 0);opacity:0.326531;;animation:none"></path>
<path fill="#fff" d="M2220 689.5 L906.979400904553 689.5 A15 15 0 0 0 906.979400904553 720.5 L2220 720.5" transform="matrix(1,0,0,1,-44.67265319824219,0)" style="fill:rgb(255, 255, 255);transform:matrix(1, 0, 0, 1, -44.6727, 0);;animation:none"></path>
<path fill="#fff" d="M1045.8005721437992 689.5 L1077.0674353945392 689.5 A15 15 0 0 1 1077.0674353945392 720.5 L1045.8005721437992 720.5 A15 15 0 0 1 1045.8005721437992 689.5" transform="matrix(1,0,0,1,0,0)" opacity="0.122448" style="fill:rgb(255, 255, 255);transform:matrix(1, 0, 0, 1, 0, 0);opacity:0.122448;;animation:none"></path>
<path fill="#fff" d="M2220 719.5 L977.6174315923969 719.5 A15 15 0 0 1 977.6174315923969 750.5 L2220 750.5" transform="matrix(1,0,0,1,23.120643615722656,0)" style="fill:rgb(255, 255, 255);transform:matrix(1, 0, 0, 1, 23.1206, 0);;animation:none"></path>
<path fill="#000" d="M1983.6109532528033 719.5 L2017.2219065056065 719.5 A15 15 0 0 1 2017.2219065056065 750.5 L1983.6109532528033 750.5 A15 15 0 0 1 1983.6109532528033 719.5" transform="matrix(1,0,0,1,-124.92222595214844,0)" opacity="1" style="fill:rgb(0, 0, 0);transform:matrix(1, 0, 0, 1, -124.922, 0);;animation:none"></path>
<path fill="#fff" d="M2220 749.5 L912.3229742118527 749.5 A15 15 0 0 0 912.3229742118527 780.5 L2220 780.5" transform="matrix(1,0,0,1,-17.972820281982422,0)" style="fill:rgb(255, 255, 255);transform:matrix(1, 0, 0, 1, -17.9728, 0);;animation:none"></path>
<path fill="#fff" d="M1048.7493478372362 749.5 L1060.0261278719238 749.5 A15 15 0 0 1 1060.0261278719238 780.5 L1048.7493478372362 780.5 A15 15 0 0 1 1048.7493478372362 749.5" transform="matrix(1,0,0,1,0,0)" opacity="1" style="fill:rgb(255, 255, 255);transform:matrix(1, 0, 0, 1, 0, 0);;animation:none"></path>
<path fill="#fff" d="M2220 779.5 L998.2416574957745 779.5 A15 15 0 0 1 998.2416574957745 810.5 L2220 810.5" transform="matrix(1,0,0,1,20.9429931640625,0)" style="fill:rgb(255, 255, 255);transform:matrix(1, 0, 0, 1, 20.943, 0);;animation:none"></path>
<path fill="#000" d="M1968.8030864253076 779.5 L1987.6061728506152 779.5 A15 15 0 0 1 1987.6061728506152 810.5 L1968.8030864253076 810.5 A15 15 0 0 1 1968.8030864253076 779.5" transform="matrix(1,0,0,1,-1414.48291015625,0)" opacity="0.448979" style="fill:rgb(0, 0, 0);transform:matrix(1, 0, 0, 1, -1414.48, 0);opacity:0.448979;;animation:none"></path>
<path fill="#fff" d="M2220 809.5 L918.8363816891144 809.5 A15 15 0 0 0 918.8363816891144 840.5 L2220 840.5" transform="matrix(1,0,0,1,-9.669906616210938,0)" style="fill:rgb(255, 255, 255);transform:matrix(1, 0, 0, 1, -9.66991, 0);;animation:none"></path>
<path fill="#fff" d="M1060.7206280105029 809.5 L1100.1390564424619 809.5 A15 15 0 0 1 1100.1390564424619 840.5 L1060.7206280105029 840.5 A15 15 0 0 1 1060.7206280105029 809.5" transform="matrix(1,0,0,1,0,0)" opacity="0.979592" style="fill:rgb(255, 255, 255);transform:matrix(1, 0, 0, 1, 0, 0);opacity:0.979592;;animation:none"></path>
<path fill="#fff" d="M2220 839.5 L980.5785399972041 839.5 A15 15 0 0 1 980.5785399972041 870.5 L2220 870.5" transform="matrix(1,0,0,1,1.7419872283935547,0)" style="fill:rgb(255, 255, 255);transform:matrix(1, 0, 0, 1, 1.74199, 0);;animation:none"></path>
<path fill="#000" d="M1963.5485432191056 839.5 L1977.0970864382111 839.5 A15 15 0 0 1 1977.0970864382111 870.5 L1963.5485432191056 870.5 A15 15 0 0 1 1963.5485432191056 839.5" transform="matrix(1,0,0,1,-1875.30859375,0)" opacity="0.285714" style="fill:rgb(0, 0, 0);transform:matrix(1, 0, 0, 1, -1875.31, 0);opacity:0.285714;;animation:none"></path>
<path fill="#fff" d="M2220 869.5 L917.5057170613746 869.5 A15 15 0 0 0 917.5057170613746 900.5 L2220 900.5" transform="matrix(1,0,0,1,-0.3570671081542969,0)" style="fill:rgb(255, 255, 255);transform:matrix(1, 0, 0, 1, -0.357067, 0);;animation:none"></path>
<path fill="#fff" d="M1052.2122393945424 869.5 L1078.231249069221 869.5 A15 15 0 0 1 1078.231249069221 900.5 L1052.2122393945424 900.5 A15 15 0 0 1 1052.2122393945424 869.5" transform="matrix(1,0,0,1,0,0)" opacity="0.734694" style="fill:rgb(255, 255, 255);transform:matrix(1, 0, 0, 1, 0, 0);opacity:0.734694;;animation:none"></path>
<path fill="#fff" d="M2220 899.5 L963.414163759499 899.5 A15 15 0 0 1 963.414163759499 930.5 L2220 930.5" transform="matrix(1,0,0,1,31.007564544677734,0)" style="fill:rgb(255, 255, 255);transform:matrix(1, 0, 0, 1, 31.0076, 0);;animation:none"></path>
<path fill="#000" d="M1960.438358155159 899.5 L1970.876716310318 899.5 A15 15 0 0 1 1970.876716310318 930.5 L1960.438358155159 930.5 A15 15 0 0 1 1960.438358155159 899.5" transform="matrix(1,0,0,1,-288.0556640625,0)" opacity="1" style="fill:rgb(0, 0, 0);transform:matrix(1, 0, 0, 1, -288.056, 0);;animation:none"></path>
<path fill="#fff" d="M2220 929.5 L922.2879454433695 929.5 A15 15 0 0 0 922.2879454433695 960.5 L2220 960.5" transform="matrix(1,0,0,1,-48.33609390258789,0)" style="fill:rgb(255, 255, 255);transform:matrix(1, 0, 0, 1, -48.3361, 0);;animation:none"></path>
<path fill="#fff" d="M1057.7413569825121 929.5 L1084.6598637101974 929.5 A15 15 0 0 1 1084.6598637101974 960.5 L1057.7413569825121 960.5 A15 15 0 0 1 1057.7413569825121 929.5" transform="matrix(1,0,0,1,0,0)" opacity="0.979592" style="fill:rgb(255, 255, 255);transform:matrix(1, 0, 0, 1, 0, 0);opacity:0.979592;;animation:none"></path>
<path fill="#fff" d="M2220 959.5 L974.5743222374898 959.5 A15 15 0 0 1 974.5743222374898 990.5 L2220 990.5" transform="matrix(1,0,0,1,17.834409713745117,0)" style="fill:rgb(255, 255, 255);transform:matrix(1, 0, 0, 1, 17.8344, 0);;animation:none"></path>
<path fill="#000" d="M1976.5886622000155 959.5 L2003.177324400031 959.5 A15 15 0 0 1 2003.177324400031 990.5 L1976.5886622000155 990.5 A15 15 0 0 1 1976.5886622000155 959.5" transform="matrix(1,0,0,1,-520.7846069335938,0)" opacity="1" style="fill:rgb(0, 0, 0);transform:matrix(1, 0, 0, 1, -520.785, 0);;animation:none"></path>
<path fill="#fff" d="M2220 989.5 L935.6945367667146 989.5 A15 15 0 0 0 935.6945367667146 1020.5 L2220 1020.5" transform="matrix(1,0,0,1,-24.62000846862793,0)" style="fill:rgb(255, 255, 255);transform:matrix(1, 0, 0, 1, -24.62, 0);;animation:none"></path>
<path fill="#fff" d="M985.9493818225009 989.5 L1012.9099502139039 989.5 A15 15 0 0 1 1012.9099502139039 1020.5 L985.9493818225009 1020.5 A15 15 0 0 1 985.9493818225009 989.5" transform="matrix(1,0,0,1,0,0)" opacity="0.734693" style="fill:rgb(255, 255, 255);transform:matrix(1, 0, 0, 1, 0, 0);opacity:0.734693;;animation:none"></path>
<path fill="#fff" d="M2220 1019.5 L974.6001705630345 1019.5 A15 15 0 0 1 974.6001705630345 1050.5 L2220 1050.5" transform="matrix(1,0,0,1,39.31959915161133,0)" style="fill:rgb(255, 255, 255);transform:matrix(1, 0, 0, 1, 39.3196, 0);;animation:none"></path>
<path fill="#000" d="M1965.2760765974162 1019.5 L1980.5521531948325 1019.5 A15 15 0 0 1 1980.5521531948325 1050.5 L1965.2760765974162 1050.5 A15 15 0 0 1 1965.2760765974162 1019.5" transform="matrix(1,0,0,1,-1532.07861328125,0)" opacity="0.367346" style="fill:rgb(0, 0, 0);transform:matrix(1, 0, 0, 1, -1532.08, 0);opacity:0.367346;;animation:none"></path></g></mask></defs>


<rect mask="url(#ldbk-photon-3ecs4k2ryxl-mask)" fill="url(#ldbk-photon-3ecs4k2ryxl-lg)" height="1036" width="1920" y="0" x="0" style="fill:url('#ldbk-photon-3ecs4k2ryxl-lg');;animation:none"></rect>
<g></g></g><!-- [ldio] generated by https://loading.io --></svg>